<svg t="1736223646270" class="icon" viewBox="0 0 1024 1024" version="1.1" xmlns="http://www.w3.org/2000/svg" p-id="1469" width="200" height="200"><path d="M445.013333 309.504l-222.848 364.672c-25.898667 42.368-42.368 69.504-51.754666 90.069333-5.034667 11.093333-6.314667 16.64-6.613334 18.730667 0.554667 1.28 1.237333 2.56 2.090667 3.712 1.877333 0.810667 7.296 2.645333 19.413333 4.096 22.442667 2.730667 54.186667 2.816 103.850667 2.816h445.696c49.664 0 81.408-0.085333 103.850667-2.816 12.117333-1.450667 17.493333-3.285333 19.413333-4.096a16.810667 16.810667 0 0 0 2.090667-3.712c-0.298667-2.048-1.578667-7.68-6.613334-18.730667-9.386667-20.565333-25.856-47.701333-51.754666-90.069333l50.986666-31.146667c50.133333 82.005333 75.178667 123.008 64.981334 156.16-3.242667 10.368-8.618667 20.010667-15.786667 28.16-22.954667 26.026667-71.04 26.026667-167.168 26.026667H289.152c-96.128 0-144.213333 0-167.125333-26.026667a76.8 76.8 0 0 1-15.786667-28.16c-10.24-33.152 14.848-74.154667 64.938667-156.16l222.848-364.672 50.986666 31.146667z m-50.986666-31.146667c46.506667-76.117333 69.802667-114.176 102.4-120.96a76.8 76.8 0 0 1 31.146666 0c32.597333 6.784 55.893333 44.8 102.4 120.96l222.848 364.672-50.986666 31.146667-222.848-364.672c-24.064-39.424-39.381333-64.213333-52.309334-80.597333a70.314667 70.314667 0 0 0-12.458666-13.226667 17.066667 17.066667 0 0 0-4.437334 0 70.4 70.4 0 0 0-12.458666 13.226667c-12.928 16.384-28.245333 41.173333-52.309334 80.597333l-50.986666-31.146667z m116.48-63.146666l-0.213334 0.128a0.938667 0.938667 0 0 1 0.213334-0.085334z m2.986666 0l0.213334 0.128a1.109333 1.109333 0 0 1-0.213334-0.085334zM165.034667 786.304z m693.930666 0l-0.128 0.085333 0.128-0.085333z m1.322667-2.346667v-0.170666 0.170666z m-696.576 0v-0.170666 0.170666zM512 396.8a29.866667 29.866667 0 0 1 29.866667 29.866667v170.666666a29.866667 29.866667 0 1 1-59.733334 0v-170.666666a29.866667 29.866667 0 0 1 29.866667-29.866667z m-29.866667 298.666667a29.866667 29.866667 0 1 0 59.733334 0 29.866667 29.866667 0 0 0-59.733334 0z" fill="#d81e06" p-id="1470"></path></svg>